<?xml version="1.0" standalone="no"?>
<!DOCTYPE svg PUBLIC "-//W3C//DTD SVG 20010904//EN"
 "http://www.w3.org/TR/2001/REC-SVG-20010904/DTD/svg10.dtd">
<svg version="1.0" xmlns="http://www.w3.org/2000/svg"
 width="655.000000pt" height="655.000000pt" viewBox="0 0 655.000000 655.000000"
 preserveAspectRatio="xMidYMid meet">
<metadata>
Created by potrace 1.11, written by Peter Selinger 2001-2013
</metadata>
<g transform="translate(0.000000,655.000000) scale(0.100000,-0.100000)"
fill="#000000" stroke="none">
<path d="M1854 4996 c-68 -17 -180 -79 -225 -125 -59 -61 -107 -139 -130 -209
l-22 -67 -2 -1325 c-1 -1257 0 -1328 17 -1393 27 -100 61 -161 131 -232 73
-75 179 -130 273 -143 79 -11 2685 -10 2702 1 7 5 24 11 39 13 35 7 127 52
152 75 11 11 24 19 28 19 10 1 96 106 102 123 2 7 9 19 16 27 7 8 23 47 36 85
l23 70 0 1340 c0 1278 -1 1343 -18 1395 -11 30 -31 77 -45 104 -30 56 -143
176 -166 176 -8 0 -15 4 -15 8 0 8 -82 45 -131 60 -13 3 -629 8 -1369 9 -1044
1 -1356 -1 -1396 -11z"/>
</g>
</svg>
