<?xml version="1.0" standalone="no"?>
<!DOCTYPE svg PUBLIC "-//W3C//DTD SVG 20010904//EN"
 "http://www.w3.org/TR/2001/REC-SVG-20010904/DTD/svg10.dtd">
<svg version="1.0" xmlns="http://www.w3.org/2000/svg"
 width="800.000000pt" height="800.000000pt" viewBox="0 0 800.000000 800.000000"
 preserveAspectRatio="xMidYMid meet">
<metadata>
Created by potrace 1.11, written by Peter Selinger 2001-2013
</metadata>
<g transform="translate(0.000000,800.000000) scale(0.100000,-0.100000)"
fill="#000000" stroke="none">
<path d="M3600 6195 c29 -30 58 -51 63 -48 6 3 7 2 4 -4 -3 -5 70 -85 163
-178 l170 -169 64 64 c36 35 62 68 59 74 -3 5 -1 6 4 3 13 -8 36 17 25 28 -4
5 -2 5 4 2 14 -8 197 176 187 188 -4 4 -3 5 3 2 6 -3 33 16 59 43 l49 50 -454
0 -454 0 54 -55z"/>
<path d="M2390 4907 l0 -1337 168 0 167 0 78 78 77 77 0 1015 0 1015 -245 245
-245 245 0 -1338z"/>
<path d="M5362 5997 l-242 -242 0 -1093 0 -1092 245 0 245 0 0 1335 c0 734 -1
1335 -3 1335 -1 0 -111 -109 -245 -243z"/>
<path d="M3070 4784 l0 -769 245 245 245 245 0 285 0 285 -137 135 c-76 75
-186 182 -245 240 l-108 104 0 -770z"/>
<path d="M3245 3890 l-320 -320 323 0 322 0 0 320 c0 176 -1 320 -3 320 -1 0
-146 -144 -322 -320z"/>
<path d="M3937 2892 c-22 -25 -21 -45 3 -67 30 -27 74 -10 78 30 6 49 -48 73
-81 37z"/>
<path d="M3187 2863 c-8 -13 -107 -364 -107 -379 0 -10 12 -14 39 -14 39 0 40
0 47 45 l6 45 54 0 c50 0 54 -2 60 -27 14 -63 14 -63 55 -63 24 0 39 5 39 13
0 12 -49 200 -85 325 l-18 62 -43 0 c-24 0 -45 -3 -47 -7z m62 -148 c7 -27 14
-58 17 -67 5 -15 -1 -18 -36 -18 -35 0 -41 3 -36 18 2 9 10 43 17 75 14 65 21
64 38 -8z"/>
<path d="M3530 2772 l-25 -8 -3 -147 -3 -147 41 0 40 0 0 120 0 120 28 0 c46
0 52 -15 52 -132 l0 -108 41 0 41 0 -4 125 c-3 120 -4 126 -30 152 -23 23 -37
27 -90 30 -35 1 -74 -1 -88 -5z"/>
<path d="M4263 2773 c-23 -4 -23 -7 -23 -154 l0 -149 30 0 30 0 0 120 c0 111
1 120 19 120 23 0 31 -19 31 -76 0 -42 1 -44 30 -44 l30 0 0 60 c0 46 3 60 15
60 26 0 35 -37 35 -139 l0 -101 31 0 31 0 -4 136 c-3 130 -4 137 -28 156 -18
15 -33 18 -60 14 -40 -7 -39 -7 -100 -2 -25 2 -55 2 -67 -1z"/>
<path d="M4710 2762 c-68 -34 -100 -147 -62 -221 29 -59 63 -76 147 -76 41 0
79 5 85 11 6 6 7 24 4 41 -6 29 -9 31 -31 22 -51 -19 -130 -3 -141 29 -3 9 21
12 99 12 l102 0 -6 50 c-8 70 -33 116 -72 134 -43 21 -82 20 -125 -2z m102
-69 c34 -31 23 -43 -42 -43 -64 0 -72 8 -40 40 24 24 57 26 82 3z"/>
<path d="M3860 2735 c0 -35 0 -35 45 -35 l45 0 0 -89 c0 -81 3 -93 24 -118 22
-25 31 -28 85 -28 68 0 82 9 74 46 -4 25 -8 26 -48 22 -28 -4 -45 -1 -50 8 -5
7 -9 60 -10 118 l-1 106 -82 3 -82 3 0 -36z"/>
<path d="M4280 2115 c0 -10 10 -15 29 -15 l29 0 0 -112 c0 -97 3 -114 19 -125
24 -18 77 -13 81 9 2 12 -4 16 -30 15 l-33 -2 -3 123 -3 122 -44 0 c-33 0 -45
-4 -45 -15z"/>
<path d="M4834 2115 c-12 -8 -24 -28 -27 -45 -4 -18 -13 -30 -22 -30 -8 0 -15
-7 -15 -15 0 -8 7 -15 15 -15 12 0 15 -16 15 -80 0 -73 2 -80 20 -80 18 0 20
7 20 80 l0 80 35 0 c24 0 35 5 35 15 0 10 -11 15 -35 15 -30 0 -35 3 -35 24 0
28 28 41 66 32 17 -5 24 -2 24 8 0 28 -62 35 -96 11z"/>
<path d="M2884 2105 c-4 -9 -2 -21 4 -27 15 -15 44 -1 40 19 -4 23 -36 29 -44
8z"/>
<path d="M4564 2105 c-4 -9 -2 -21 4 -27 15 -15 44 -1 40 19 -4 23 -36 29 -44
8z"/>
<path d="M2840 2025 c0 -10 10 -15 29 -15 28 0 28 0 30 -67 1 -52 5 -71 19
-81 23 -18 76 -11 80 10 2 12 -4 16 -30 15 l-33 -2 -3 78 -3 77 -44 0 c-33 0
-45 -4 -45 -15z"/>
<path d="M3113 2025 c-43 -30 -24 -68 50 -99 54 -22 43 -41 -21 -41 -36 1 -52
-3 -52 -12 0 -17 43 -27 87 -20 40 7 53 20 53 55 0 18 -11 28 -56 48 -67 29
-67 49 0 48 37 0 46 3 44 15 -4 23 -76 26 -105 6z"/>
<path d="M3566 2033 c-3 -4 -6 -46 -6 -95 0 -72 3 -88 15 -88 12 0 15 16 15
80 0 62 3 80 14 80 17 0 26 -22 26 -61 0 -20 5 -29 16 -29 12 0 15 9 13 42 -3
28 1 43 10 46 22 7 31 -19 31 -90 0 -54 3 -68 15 -68 12 0 15 14 15 68 0 37
-6 78 -13 92 -11 22 -19 25 -79 27 -36 1 -68 -1 -72 -4z"/>
<path d="M3805 2018 c4 -13 21 -58 37 -100 34 -85 29 -108 -18 -108 -15 0 -24
-6 -24 -15 0 -17 32 -20 61 -5 24 13 42 49 74 145 29 90 30 105 10 105 -8 0
-19 -17 -25 -42 -6 -24 -16 -59 -22 -78 l-11 -35 -23 60 c-13 33 -23 68 -23
78 -1 10 -9 17 -22 17 -16 0 -19 -4 -14 -22z"/>
<path d="M4520 2025 c0 -10 10 -15 29 -15 l29 0 1 -67 c0 -53 4 -71 18 -81 24
-18 77 -11 81 10 2 12 -4 16 -30 15 l-33 -2 -3 78 -3 77 -44 0 c-33 0 -45 -4
-45 -15z"/>
<path d="M5043 2030 c-12 -5 -26 -18 -32 -29 -12 -22 -15 -80 -5 -106 14 -35
98 -58 134 -35 22 14 3 25 -36 21 -34 -3 -74 19 -74 41 0 4 29 8 65 8 l65 0 0
30 c0 59 -58 93 -117 70z m71 -36 c26 -26 18 -34 -34 -34 -54 0 -59 4 -33 32
20 22 46 23 67 2z"/>
</g>
</svg>
